<svg viewBox="0 0 400 225" xmlns="http://www.w3.org/2000/svg" width="400" height="225">
  <defs>
    <linearGradient id="sky3" x1="0%" y1="0%" x2="100%" y2="100%">
      <stop offset="0%" style="stop-color:#1a3a5c"/>
      <stop offset="100%" style="stop-color:#2E4A8E"/>
    </linearGradient>
    <linearGradient id="edif3" x1="0%" y1="0%" x2="0%" y2="100%">
      <stop offset="0%" style="stop-color:#C8C8C8"/>
      <stop offset="100%" style="stop-color:#9a9a9a"/>
    </linearGradient>
    <linearGradient id="overlay3" x1="0%" y1="0%" x2="0%" y2="100%">
      <stop offset="0%" style="stop-color:rgba(0,0,0,0)"/>
      <stop offset="50%" style="stop-color:rgba(26,39,68,0.4)"/>
      <stop offset="100%" style="stop-color:rgba(26,39,68,0.95)"/>
    </linearGradient>
  </defs>

  <!-- Cielo nocturno/atardecer -->
  <rect width="400" height="225" fill="url(#sky3)"/>

  <!-- Estrellas/luces ciudad -->
  <circle cx="20" cy="15" r="1" fill="white" opacity="0.6"/>
  <circle cx="45" cy="8" r="1.5" fill="white" opacity="0.5"/>
  <circle cx="370" cy="12" r="1" fill="white" opacity="0.7"/>
  <circle cx="390" cy="25" r="1" fill="white" opacity="0.4"/>

  <!-- Edificio central principal (5 niveles) -->
  <rect x="120" y="30" width="160" height="135" fill="url(#edif3)"/>

  <!-- Pisos del edificio central (5 niveles) -->
  <!-- Nivel 5 -->
  <rect x="122" y="32" width="156" height="24" fill="#d0d0d0"/>
  <rect x="122" y="32" width="156" height="1" fill="#8DC63F" opacity="0.6"/>
  <!-- Nivel 4 -->
  <rect x="122" y="57" width="156" height="24" fill="#c8c8c8"/>
  <rect x="122" y="57" width="156" height="1" fill="#8DC63F" opacity="0.5"/>
  <!-- Nivel 3 -->
  <rect x="122" y="82" width="156" height="24" fill="#d0d0d0"/>
  <rect x="122" y="82" width="156" height="1" fill="#8DC63F" opacity="0.5"/>
  <!-- Nivel 2 -->
  <rect x="122" y="107" width="156" height="24" fill="#c8c8c8"/>
  <rect x="122" y="107" width="156" height="1" fill="#8DC63F" opacity="0.5"/>
  <!-- Nivel 1 (PB) -->
  <rect x="122" y="132" width="156" height="33" fill="#b8b8b8"/>

  <!-- Ventanas nivel 5 -->
  <rect x="132" y="36" width="18" height="16" rx="1" fill="#6B9FBB" opacity="0.8"/>
  <rect x="158" y="36" width="18" height="16" rx="1" fill="#FFE87C" opacity="0.7"/>
  <rect x="184" y="36" width="18" height="16" rx="1" fill="#6B9FBB" opacity="0.8"/>
  <rect x="210" y="36" width="18" height="16" rx="1" fill="#6B9FBB" opacity="0.6"/>
  <rect x="236" y="36" width="18" height="16" rx="1" fill="#FFE87C" opacity="0.7"/>
  <rect x="262" y="36" width="8" height="16" rx="1" fill="#6B9FBB" opacity="0.5"/>

  <!-- Ventanas nivel 4 -->
  <rect x="132" y="61" width="18" height="16" rx="1" fill="#FFE87C" opacity="0.8"/>
  <rect x="158" y="61" width="18" height="16" rx="1" fill="#6B9FBB" opacity="0.7"/>
  <rect x="184" y="61" width="18" height="16" rx="1" fill="#FFE87C" opacity="0.9"/>
  <rect x="210" y="61" width="18" height="16" rx="1" fill="#6B9FBB" opacity="0.6"/>
  <rect x="236" y="61" width="18" height="16" rx="1" fill="#6B9FBB" opacity="0.7"/>
  <rect x="262" y="61" width="8" height="16" rx="1" fill="#FFE87C" opacity="0.6"/>

  <!-- Ventanas nivel 3 -->
  <rect x="132" y="86" width="18" height="16" rx="1" fill="#6B9FBB" opacity="0.7"/>
  <rect x="158" y="86" width="18" height="16" rx="1" fill="#FFE87C" opacity="0.8"/>
  <rect x="184" y="86" width="18" height="16" rx="1" fill="#6B9FBB" opacity="0.6"/>
  <rect x="210" y="86" width="18" height="16" rx="1" fill="#FFE87C" opacity="0.9"/>
  <rect x="236" y="86" width="18" height="16" rx="1" fill="#6B9FBB" opacity="0.7"/>
  <rect x="262" y="86" width="8" height="16" rx="1" fill="#6B9FBB" opacity="0.5"/>

  <!-- Ventanas nivel 2 -->
  <rect x="132" y="111" width="18" height="16" rx="1" fill="#FFE87C" opacity="0.7"/>
  <rect x="158" y="111" width="18" height="16" rx="1" fill="#6B9FBB" opacity="0.8"/>
  <rect x="184" y="111" width="18" height="16" rx="1" fill="#6B9FBB" opacity="0.6"/>
  <rect x="210" y="111" width="18" height="16" rx="1" fill="#FFE87C" opacity="0.8"/>
  <rect x="236" y="111" width="18" height="16" rx="1" fill="#6B9FBB" opacity="0.7"/>
  <rect x="262" y="111" width="8" height="16" rx="1" fill="#FFE87C" opacity="0.6"/>

  <!-- Planta baja -->
  <rect x="140" y="148" width="30" height="17" rx="2" fill="#333" opacity="0.6"/>
  <rect x="178" y="136" width="44" height="29" rx="2" fill="#5a7a8a" opacity="0.4"/>
  <rect x="230" y="148" width="30" height="17" rx="2" fill="#333" opacity="0.6"/>

  <!-- Edificio izquierdo más bajo (3 pisos) -->
  <rect x="20" y="75" width="95" height="90" fill="#b0b0b0"/>
  <rect x="22" y="77" width="91" height="26" fill="#b8b8b8"/>
  <rect x="22" y="104" width="91" height="26" fill="#b0b0b0"/>
  <rect x="22" y="131" width="91" height="34" fill="#a8a8a8"/>
  <rect x="30" y="82" width="14" height="16" rx="1" fill="#6B9FBB" opacity="0.7"/>
  <rect x="50" y="82" width="14" height="16" rx="1" fill="#FFE87C" opacity="0.8"/>
  <rect x="70" y="82" width="14" height="16" rx="1" fill="#6B9FBB" opacity="0.6"/>
  <rect x="90" y="82" width="14" height="16" rx="1" fill="#6B9FBB" opacity="0.5"/>
  <rect x="30" y="109" width="14" height="16" rx="1" fill="#FFE87C" opacity="0.7"/>
  <rect x="50" y="109" width="14" height="16" rx="1" fill="#6B9FBB" opacity="0.8"/>
  <rect x="70" y="109" width="14" height="16" rx="1" fill="#6B9FBB" opacity="0.6"/>
  <rect x="90" y="109" width="14" height="16" rx="1" fill="#FFE87C" opacity="0.6"/>

  <!-- Edificio derecho (4 pisos) -->
  <rect x="285" y="55" width="100" height="110" fill="#c0c0c0"/>
  <rect x="287" y="57" width="96" height="24" fill="#c8c8c8"/>
  <rect x="287" y="82" width="96" height="24" fill="#c0c0c0"/>
  <rect x="287" y="107" width="96" height="24" fill="#c8c8c8"/>
  <rect x="287" y="132" width="96" height="33" fill="#b8b8b8"/>
  <rect x="295" y="61" width="16" height="16" rx="1" fill="#6B9FBB" opacity="0.7"/>
  <rect x="316" y="61" width="16" height="16" rx="1" fill="#FFE87C" opacity="0.8"/>
  <rect x="337" y="61" width="16" height="16" rx="1" fill="#6B9FBB" opacity="0.6"/>
  <rect x="358" y="61" width="16" height="16" rx="1" fill="#FFE87C" opacity="0.7"/>
  <rect x="295" y="86" width="16" height="16" rx="1" fill="#FFE87C" opacity="0.8"/>
  <rect x="316" y="86" width="16" height="16" rx="1" fill="#6B9FBB" opacity="0.7"/>
  <rect x="337" y="86" width="16" height="16" rx="1" fill="#FFE87C" opacity="0.7"/>
  <rect x="358" y="86" width="16" height="16" rx="1" fill="#6B9FBB" opacity="0.6"/>

  <!-- Suelo / calle -->
  <rect x="0" y="165" width="400" height="60" fill="#1a1a1a"/>
  <rect x="0" y="165" width="400" height="4" fill="#333"/>
  <!-- Líneas de calle -->
  <rect x="60" y="172" width="40" height="4" rx="2" fill="#fff" opacity="0.3"/>
  <rect x="180" y="172" width="40" height="4" rx="2" fill="#fff" opacity="0.3"/>
  <rect x="300" y="172" width="40" height="4" rx="2" fill="#fff" opacity="0.3"/>

  <!-- Grúa de construcción -->
  <rect x="118" y="10" width="4" height="25" fill="#8DC63F" opacity="0.8"/>
  <rect x="90" y="10" width="32" height="3" fill="#8DC63F" opacity="0.8"/>
  <line x1="118" y1="10" x2="90" y2="13" stroke="#8DC63F" stroke-width="1" opacity="0.6"/>

  <!-- Andamio lateral -->
  <line x1="280" y1="32" x2="280" y2="165" stroke="#8DC63F" stroke-width="1.5" opacity="0.4"/>
  <line x1="286" y1="32" x2="286" y2="165" stroke="#8DC63F" stroke-width="1.5" opacity="0.4"/>
  <line x1="280" y1="55" x2="286" y2="55" stroke="#8DC63F" stroke-width="1" opacity="0.5"/>
  <line x1="280" y1="80" x2="286" y2="80" stroke="#8DC63F" stroke-width="1" opacity="0.5"/>
  <line x1="280" y1="105" x2="286" y2="105" stroke="#8DC63F" stroke-width="1" opacity="0.5"/>
  <line x1="280" y1="130" x2="286" y2="130" stroke="#8DC63F" stroke-width="1" opacity="0.5"/>
  <line x1="280" y1="155" x2="286" y2="155" stroke="#8DC63F" stroke-width="1" opacity="0.5"/>

  <!-- Indicadores de nivel -->
  <text x="104" y="46" font-family="'Barlow',sans-serif" font-size="7" fill="#8DC63F" opacity="0.9" font-weight="700">N5</text>
  <text x="104" y="71" font-family="'Barlow',sans-serif" font-size="7" fill="#8DC63F" opacity="0.9" font-weight="700">N4</text>
  <text x="104" y="96" font-family="'Barlow',sans-serif" font-size="7" fill="#8DC63F" opacity="0.9" font-weight="700">N3</text>
  <text x="104" y="121" font-family="'Barlow',sans-serif" font-size="7" fill="#8DC63F" opacity="0.9" font-weight="700">N2</text>
  <text x="104" y="150" font-family="'Barlow',sans-serif" font-size="7" fill="#8DC63F" opacity="0.9" font-weight="700">PB</text>

  <!-- Overlay -->
  <rect width="400" height="225" fill="url(#overlay3)"/>

  <!-- Texto -->
  <text x="20" y="178" font-family="'Barlow',sans-serif" font-size="9" font-weight="700" fill="#8DC63F" letter-spacing="2">CONSTRUCCIÓN · MULTIFAMILIAR</text>
  <text x="20" y="196" font-family="'Josefin Sans',sans-serif" font-size="15" font-weight="700" fill="white">Construcción de Edificios</text>
  <text x="20" y="213" font-family="'Josefin Sans',sans-serif" font-size="15" font-weight="700" fill="white">de 5 Niveles</text>

  <!-- Badge En Vivo -->
  <rect x="296" y="10" width="88" height="20" rx="10" fill="#dc2626"/>
  <text x="340" y="24" font-family="'Barlow',sans-serif" font-size="10" font-weight="800" fill="white" text-anchor="middle">🔴 EN VIVO</text>
</svg>
