<svg viewBox="0 0 400 225" xmlns="http://www.w3.org/2000/svg" width="400" height="225">
  <defs>
    <linearGradient id="sky4" x1="0%" y1="0%" x2="100%" y2="100%">
      <stop offset="0%" style="stop-color:#5B8DB8"/>
      <stop offset="100%" style="stop-color:#87CEEB"/>
    </linearGradient>
    <linearGradient id="ov4" x1="0%" y1="0%" x2="0%" y2="100%">
      <stop offset="0%" style="stop-color:rgba(0,0,0,0)"/>
      <stop offset="55%" style="stop-color:rgba(26,39,68,0.5)"/>
      <stop offset="100%" style="stop-color:rgba(26,39,68,0.96)"/>
    </linearGradient>
  </defs>
  <rect width="400" height="225" fill="url(#sky4)"/>
  <!-- Suelo obra -->
  <rect x="0" y="145" width="400" height="80" fill="#8B7355"/>
  <rect x="0" y="145" width="400" height="6" fill="#7a6245"/>
  <!-- Columnas de concreto en construcción -->
  <rect x="60" y="60" width="22" height="90" fill="#C8C8C8"/>
  <rect x="62" y="62" width="18" height="86" fill="#d4d4d4"/>
  <line x1="64" y1="62" x2="64" y2="148" stroke="#aaa" stroke-width="1" opacity="0.5"/>
  <line x1="70" y1="62" x2="70" y2="148" stroke="#aaa" stroke-width="1" opacity="0.5"/>
  <line x1="76" y1="62" x2="76" y2="148" stroke="#aaa" stroke-width="1" opacity="0.5"/>

  <rect x="150" y="40" width="22" height="110" fill="#C8C8C8"/>
  <rect x="152" y="42" width="18" height="106" fill="#d4d4d4"/>

  <rect x="240" y="55" width="22" height="95" fill="#C8C8C8"/>
  <rect x="330" y="70" width="22" height="80" fill="#C8C8C8"/>

  <!-- Viga horizontal entre columnas -->
  <rect x="60" y="58" width="112" height="14" fill="#b8b8b8"/>
  <rect x="240" y="53" width="112" height="14" fill="#b8b8b8"/>

  <!-- Acero de refuerzo asomando -->
  <line x1="64" y1="40" x2="64" y2="60" stroke="#8DC63F" stroke-width="2"/>
  <line x1="68" y1="38" x2="68" y2="60" stroke="#8DC63F" stroke-width="2"/>
  <line x1="72" y1="40" x2="72" y2="60" stroke="#8DC63F" stroke-width="2"/>
  <line x1="76" y1="38" x2="76" y2="60" stroke="#8DC63F" stroke-width="2"/>

  <line x1="154" y1="20" x2="154" y2="42" stroke="#8DC63F" stroke-width="2"/>
  <line x1="158" y1="18" x2="158" y2="42" stroke="#8DC63F" stroke-width="2"/>
  <line x1="162" y1="20" x2="162" y2="42" stroke="#8DC63F" stroke-width="2"/>
  <line x1="166" y1="18" x2="166" y2="42" stroke="#8DC63F" stroke-width="2"/>

  <!-- Mezcla / hormigonera -->
  <ellipse cx="320" cy="148" rx="28" ry="18" fill="#6B6BBB" opacity="0.7"/>
  <ellipse cx="320" cy="148" rx="22" ry="14" fill="#5a5aaa" opacity="0.8"/>
  <rect x="310" y="130" width="8" height="18" fill="#444"/>

  <!-- Materiales en obra: ladrillos apilados -->
  <rect x="10" y="138" width="45" height="10" fill="#cc6633"/>
  <rect x="10" y="130" width="45" height="8" fill="#dd7744"/>
  <rect x="12" y="123" width="41" height="7" fill="#cc6633"/>
  <line x1="32" y1="123" x2="32" y2="148" stroke="#aa4422" stroke-width="1" opacity="0.5"/>
  <line x1="10" y1="130" x2="55" y2="130" stroke="#aa4422" stroke-width="0.5" opacity="0.5"/>
  <line x1="10" y1="138" x2="55" y2="138" stroke="#aa4422" stroke-width="0.5" opacity="0.5"/>

  <!-- Casco de seguridad -->
  <ellipse cx="370" cy="138" rx="20" ry="12" fill="#FFD700"/>
  <ellipse cx="370" cy="140" rx="22" ry="6" fill="#FFC200"/>

  <!-- Andamio -->
  <line x1="100" y1="20" x2="100" y2="145" stroke="#8DC63F" stroke-width="1.5" opacity="0.5"/>
  <line x1="108" y1="20" x2="108" y2="145" stroke="#8DC63F" stroke-width="1.5" opacity="0.5"/>
  <line x1="100" y1="40" x2="108" y2="40" stroke="#8DC63F" stroke-width="1" opacity="0.5"/>
  <line x1="100" y1="65" x2="108" y2="65" stroke="#8DC63F" stroke-width="1" opacity="0.5"/>
  <line x1="100" y1="90" x2="108" y2="90" stroke="#8DC63F" stroke-width="1" opacity="0.5"/>
  <line x1="100" y1="115" x2="108" y2="115" stroke="#8DC63F" stroke-width="1" opacity="0.5"/>

  <rect width="400" height="225" fill="url(#ov4)"/>
  <text x="20" y="178" font-family="Barlow,sans-serif" font-size="9" font-weight="700" fill="#8DC63F" letter-spacing="2">INGENIERÍA CIVIL · BOLIVIA</text>
  <text x="20" y="196" font-family="Josefin Sans,sans-serif" font-size="15" font-weight="700" fill="white">Construcciones</text>
  <text x="20" y="213" font-family="Josefin Sans,sans-serif" font-size="15" font-weight="700" fill="white">Civiles</text>
</svg>